<?xml version="1.0" standalone="no"?>
<!DOCTYPE svg PUBLIC "-//W3C//DTD SVG 20010904//EN"
 "http://www.w3.org/TR/2001/REC-SVG-20010904/DTD/svg10.dtd">
<svg version="1.0" xmlns="http://www.w3.org/2000/svg"
 width="300.000000pt" height="300.000000pt" viewBox="0 0 300.000000 300.000000"
 preserveAspectRatio="xMidYMid meet">
<metadata>
Created by potrace 1.10, written by Peter Selinger 2001-2011
</metadata>
<g transform="translate(0.000000,300.000000) scale(0.100000,-0.100000)"
fill="#000000" stroke="none">
<path d="M2059 2155 c-87 -21 -159 -58 -217 -110 -103 -93 -132 -190 -132
-453 0 -112 -4 -172 -10 -170 -6 2 -62 71 -126 153 -309 402 -355 459 -388
480 -32 21 -178 31 -232 16 -79 -21 -75 6 -77 -607 l-2 -544 28 -27 c26 -26
33 -28 124 -30 102 -2 143 10 163 46 6 12 10 129 10 305 0 186 4 286 10 286
13 0 2 15 368 -459 133 -173 135 -174 292 -177 199 -4 189 -23 190 393 l0 331
-31 26 c-17 14 -39 26 -50 26 -33 0 -21 14 36 44 105 55 181 164 210 303 37
173 2 208 -166 168z m147 -29 c9 -25 -23 -183 -49 -240 -50 -109 -117 -161
-281 -221 -27 -10 -64 -32 -81 -49 -17 -17 -26 -28 -21 -23 6 4 63 7 127 7 97
0 118 -3 123 -16 3 -9 6 -158 6 -332 0 -279 -2 -318 -17 -334 -14 -15 -32 -18
-132 -18 -96 0 -121 3 -147 19 -16 10 -115 128 -219 262 -291 377 -327 420
-339 416 -8 -3 -12 -105 -16 -348 l-5 -344 -109 -3 c-71 -2 -113 1 -122 9 -12
10 -14 102 -14 552 0 489 2 542 17 559 14 15 32 18 119 18 94 0 105 -2 132
-25 16 -13 127 -152 247 -307 243 -314 303 -388 315 -388 5 0 10 118 12 263
l3 262 28 60 c57 121 158 191 328 224 66 13 89 12 95 -3z"/>
<path d="M1963 1908 c-61 -64 -138 -159 -153 -190 l-11 -23 18 21 c10 11 39
47 65 80 26 32 68 83 94 112 26 28 45 52 42 52 -2 0 -27 -24 -55 -52z"/>
</g>
</svg>
