<?xml version="1.0" encoding="UTF-8"?>
<svg width="32" height="32" viewBox="0 0 32 32" fill="none" xmlns="http://www.w3.org/2000/svg">
    <path fill-rule="evenodd" clip-rule="evenodd" d="M16 32C24.8366 32 32 24.8366 32 16C32 7.16344 24.8366 0 16 0C7.16344 0 0 7.16344 0 16C0 24.8366 7.16344 32 16 32ZM20.7 11.5C20.7 13.3 19.5 14.2 17.1 14.7L14.9 15.2C13.5 15.5 12.8 15.9 12.8 16.7C12.8 17.6 13.7 18.2 15.1 18.2C16.6 18.2 17.5 17.5 17.7 16.3H20.4C20.2 18.6 18.3 20.2 15.2 20.2C12 20.2 10 18.6 10 16.6C10 14.8 11.2 13.9 13.6 13.4L15.8 12.9C17.3 12.6 17.9 12.1 17.9 11.3C17.9 10.3 16.9 9.8 15.4 9.8C13.8 9.8 12.8 10.5 12.6 11.7H10C10.2 9.4 12.2 7.8 15.4 7.8C18.7 7.8 20.7 9.3 20.7 11.5Z" fill="white"/>
</svg> 